<svg xmlns="http://www.w3.org/2000/svg" viewBox="0 0 64 64" fill="none">
  <rect width="64" height="64" rx="18" fill="#17322A" />
  <path
    d="M17 43.5V20.5H27.2C30.4 20.5 32.9 21.2 34.7 22.7C36.5 24.1 37.4 26.2 37.4 29C37.4 31.9 36.4 34.1 34.5 35.5C32.7 36.8 30.2 37.5 27 37.5H22.4V43.5H17Z"
    fill="#F7F0DF"
  />
  <path
    d="M22.4 33.2H26.4C28 33.2 29.2 32.9 30.1 32.2C31 31.5 31.4 30.4 31.4 29C31.4 27.6 31 26.6 30.1 26C29.2 25.4 28 25.1 26.4 25.1H22.4V33.2Z"
    fill="#D9A441"
  />
  <path
    d="M42 19L47 24L37 44.5L32.2 45L42 19Z"
    fill="#8BC4B3"
  />
</svg>
